<?xml version="1.0" encoding="utf-8"?>
<!-- Generator: Adobe Illustrator 16.0.0, SVG Export Plug-In . SVG Version: 6.00 Build 0)  -->
<!DOCTYPE svg PUBLIC "-//W3C//DTD SVG 1.0//EN" "http://www.w3.org/TR/2001/REC-SVG-20010904/DTD/svg10.dtd">
<svg version="1.0" id="Layer_1" xmlns="http://www.w3.org/2000/svg" xmlns:xlink="http://www.w3.org/1999/xlink" x="0px" y="0px"
	 width="731.861px" height="300px" viewBox="0 0 731.861 300" enable-background="new 0 0 731.861 300" xml:space="preserve">
<path fill="#FFC800" d="M150,0C67.157,0,0,67.157,0,150c0,82.842,67.157,150,150,150c82.842,0,150-67.159,150-150
	C300,67.157,232.842,0,150,0z M207.891,227.158c-2.332,0.973-4.722,1.426-7.085,1.426c-7.578,0-14.755-4.738-17.735-12.521
	l-5.99-15.262c-0.982,0.163-1.989,0.595-3.016,0.595h-49.923l-8.09,16.522c-4.713,9.836-16.183,13.656-25.614,8.736
	c-9.431-4.918-13.242-16.967-8.527-26.809l25.45-53.147c4.714-9.832,16.178-14.083,25.609-9.163
	c8.314,4.33,12.261,14.861,9.875,22.861h19.062l-29.742-77.332c-3.92-10.217,0.85-21.679,10.639-25.769
	c9.788-4.082,20.901,0.946,24.816,11.149l50.899,132.797C222.43,211.453,217.677,223.074,207.891,227.158z"/>
<path fill="#FFC800" d="M429.107,164.444c0,15.723-9.206,22.377-29.6,22.377c-16.286,0-26.625-6.514-26.625-21.245
	c0-14.727,9.63-20.674,28.892-20.674h16.71v-8.498c0-9.631-6.514-12.889-18.552-12.889c-6.231,0-11.471,0.568-15.578,1.559
	c-3.399,0.708-4.532-0.142-4.532-3.54v-1.132c0-3.259,0.851-4.107,4.249-4.816c4.674-0.991,9.771-1.415,15.295-1.415
	c19.826,0,29.741,7.363,29.741,22.233V164.444z M418.484,153.257h-16.569c-12.604,0-18.41,3.397-18.41,12.318
	c0,8.074,5.24,12.041,15.861,12.041c13.029,0,19.118-2.976,19.118-13.598V153.257z"/>
<path fill="#FFC800" d="M445.243,143.768c0-19.685,10.34-29.598,31.016-29.598c21.385,0,31.015,9.913,31.015,29.598v13.17
	c0,19.97-9.771,29.883-29.316,29.883c-11.046,0-18.409-3.54-22.091-10.479v32.856c0,3.822-0.709,4.531-4.532,4.531h-1.558
	c-3.541,0-4.533-0.709-4.533-4.531V143.768z M496.512,143.91c0-13.736-4.533-19.685-20.253-19.685
	c-15.436,0-20.393,6.089-20.393,19.685v13.171c0,13.597,4.957,19.685,20.393,19.685c15.438,0,20.253-6.088,20.253-19.685V143.91z"/>
<path fill="#FFC800" d="M523.976,90.801c0-3.823,0.991-4.53,4.533-4.53h1.558c3.823,0,4.53,0.707,4.53,4.53V123.8
	c4.249-6.373,11.612-9.63,22.234-9.63c17.42,0,26.202,8.213,26.202,24.782v41.919c0,3.826-0.71,4.533-4.533,4.533h-1.699
	c-3.825,0-4.532-0.707-4.532-4.533v-40.643c0-11.188-4.957-16.004-18.126-16.004c-13.598,0-19.546,5.381-19.546,18.409v38.237
	c0,3.826-0.707,4.533-4.53,4.533h-1.558c-3.542,0-4.533-0.707-4.533-4.533V90.801z"/>
<path fill="#FFC800" d="M610.357,180.872c0,3.826-0.709,4.533-4.532,4.533h-1.557c-3.541,0-4.534-0.707-4.534-4.533V138.67
	c0-16.287,8.073-24.5,24.22-24.5c1.699,0,3.257,0.14,4.53,0.281c3.542,0.425,4.249,1.416,4.249,4.957v1.416
	c0,3.541-0.85,4.249-4.391,3.682c-1.699-0.141-3.116-0.281-4.389-0.281c-10.197,0-13.597,4.815-13.597,15.013V180.872z"/>
<path fill="#FFC800" d="M657.514,93.776c0,3.824-2.975,6.797-6.798,6.797c-3.965,0-7.08-2.973-7.08-6.797
	c0-3.823,3.115-6.939,7.08-6.939C654.539,86.836,657.514,89.953,657.514,93.776z M645.333,120.117c0-3.541,0.708-4.531,4.533-4.531
	h1.558c3.539,0,4.53,0.99,4.53,4.531v60.755c0,3.826-0.991,4.533-4.53,4.533h-1.558c-3.825,0-4.533-0.707-4.533-4.533V120.117z"/>
<path fill="#FFC800" d="M731.435,150.141c-0.424,3.541-1.276,4.391-5.098,4.391h-42.771v4.249c0,12.888,6.373,17.984,22.092,17.984
	c6.233,0,12.604-0.848,19.261-2.69c3.399-0.991,4.532,0.143,4.532,3.681v1.276c0,2.973-0.566,3.966-4.39,5.1
	c-6.088,1.84-12.604,2.689-19.403,2.689c-22.234,0-32.714-8.638-32.714-29.597v-13.172c0-19.969,9.915-29.882,29.882-29.882
	c18.695,0,29.035,9.63,29.035,28.321C731.861,145.75,731.719,148.299,731.435,150.141z M683.566,145.611h38.238v-4.676
	c0-11.472-6.375-17.277-19.12-17.277s-19.118,5.806-19.118,17.277V145.611z"/>
</svg>
